<svg xmlns="http://www.w3.org/2000/svg" viewBox="0 0 400 120" width="400" height="120">
  <defs>
    <linearGradient id="brandGrad" x1="0%" y1="0%" x2="100%" y2="100%">
      <stop offset="0%" stop-color="#818CF8"/>
      <stop offset="60%" stop-color="#6366F1"/>
      <stop offset="100%" stop-color="#A78BFA"/>
    </linearGradient>
    <linearGradient id="accentGrad" x1="0%" y1="0%" x2="100%" y2="100%">
      <stop offset="0%" stop-color="#22D3EE"/>
      <stop offset="100%" stop-color="#818CF8"/>
    </linearGradient>
    <filter id="glow" x="-30%" y="-30%" width="160%" height="160%">
      <feGaussianBlur stdDeviation="2" result="blur"/>
      <feMerge>
        <feMergeNode in="blur"/>
        <feMergeNode in="SourceGraphic"/>
      </feMerge>
    </filter>
  </defs>

  <!-- Icon: Modern "N" Mark with AI accent -->
  <g transform="translate(14, 22)">
    <rect x="-4" y="-4" width="88" height="88" rx="24" fill="url(#brandGrad)" opacity="0.12"/>

    <!-- Main "N" shape -->
    <rect x="6" y="6" width="8" height="68" rx="3" fill="url(#brandGrad)"/>
    <rect x="62" y="6" width="8" height="68" rx="3" fill="url(#brandGrad)"/>
    <path d="M14 10 L70 74" stroke="url(#accentGrad)" stroke-width="7" stroke-linecap="round"/>

    <circle cx="70" cy="10" r="6" fill="url(#accentGrad)" filter="url(#glow)"/>
    <circle cx="70" cy="10" r="2.5" fill="white" opacity="0.8"/>

    <circle cx="10" cy="10" r="2" fill="url(#accentGrad)" opacity="0.4"/>
    <circle cx="10" cy="70" r="2" fill="url(#accentGrad)" opacity="0.4"/>
    <circle cx="66" cy="70" r="2" fill="url(#accentGrad)" opacity="0.4"/>
  </g>

  <!-- Wordmark -->
  <g transform="translate(118, 24)">
    <text x="0" y="40" font-family="'Inter','Space Grotesk','Segoe UI',sans-serif" font-size="42" font-weight="700" letter-spacing="-0.3" fill="white">Nexify</text>
    <circle cx="175" cy="12" r="4" fill="url(#accentGrad)"/>
    <text x="0" y="65" font-family="'Inter','Segoe UI',sans-serif" font-size="11.5" font-weight="500" letter-spacing="3.5" fill="#A1A1AA">TECHNOLOGIES</text>
    <text x="0" y="80" font-family="'Inter','Segoe UI',sans-serif" font-size="7.5" font-weight="400" letter-spacing="1.5" fill="#52525B">ENGINEERING TOMORROW'S DIGITAL FRONTIERS</text>
  </g>
</svg>