<svg xmlns="http://www.w3.org/2000/svg" viewBox="0 0 400 120" width="400" height="120">
  <defs>
    <linearGradient id="primaryGrad" x1="0%" y1="0%" x2="100%" y2="100%">
      <stop offset="0%" stop-color="#3B82F6"/>
      <stop offset="50%" stop-color="#2563EB"/>
      <stop offset="100%" stop-color="#7C3AED"/>
    </linearGradient>
    <linearGradient id="accentGrad" x1="0%" y1="0%" x2="100%" y2="100%">
      <stop offset="0%" stop-color="#8B5CF6"/>
      <stop offset="100%" stop-color="#3B82F6"/>
    </linearGradient>
  </defs>

  <!-- Icon: Forward chevrons forming abstract "N" -->
  <g transform="translate(10, 10)">
    <!-- Chevron 1 (bottom left) -->
    <polygon points="0,50 25,25 50,50 25,75" fill="none" stroke="url(#primaryGrad)" stroke-width="5" stroke-linejoin="round" opacity="0.6"/>
    <!-- Chevron 2 -->
    <polygon points="18,50 43,25 68,50 43,75" fill="none" stroke="url(#primaryGrad)" stroke-width="5" stroke-linejoin="round" opacity="0.8"/>
    <!-- Chevron 3 -->
    <polygon points="36,50 61,25 86,50 61,75" fill="none" stroke="url(#primaryGrad)" stroke-width="5" stroke-linejoin="round" opacity="0.9"/>
    <!-- Chevron 4 (accent) -->
    <polygon points="54,50 79,25 104,50 79,75" fill="none" stroke="url(#accentGrad)" stroke-width="5" stroke-linejoin="round"/>

    <!-- Small accent dot -->
    <circle cx="79" cy="25" r="3" fill="#8B5CF6"/>
  </g>

  <!-- Text -->
  <g transform="translate(120, 35)">
    <!-- Nexify -->
    <text x="0" y="30" font-family="'Space Grotesk', 'Inter', 'Segoe UI', sans-serif" font-size="44" font-weight="700" fill="#0F172A" letter-spacing="1">Nexify</text>

    <!-- Highlight the "x" -->
    <text x="195" y="30" font-family="'Space Grotesk', 'Inter', 'Segoe UI', sans-serif" font-size="44" font-weight="700" fill="url(#primaryGrad)" letter-spacing="1">x</text>

    <!-- i dot -->
    <circle cx="230" cy="10" r="4" fill="url(#accentGrad)"/>

    <!-- Technologies / Tagline -->
    <text x="0" y="55" font-family="'Inter', 'Segoe UI', sans-serif" font-size="13" font-weight="500" fill="#64748B" letter-spacing="3.5" text-transform="uppercase">TECHNOLOGIES</text>

    <!-- Tagline -->
    <text x="0" y="75" font-family="'Inter', 'Segoe UI', sans-serif" font-size="9.5" font-weight="400" fill="#94A3B8" letter-spacing="1.5" text-transform="uppercase">Engineering Tomorrow's Digital Frontiers</text>
  </g>
</svg>
